<svg xmlns="http://www.w3.org/2000/svg" xmlns:xlink="http://www.w3.org/1999/xlink" version="1.1" viewBox="0 0 32 32"><title>apps</title><path d="M28 18c1.105 0 2 0.895 2 2v8c0 1.105-0.895 2-2 2h-8c-1.105 0-2-0.895-2-2v-8c0-1.105 0.895-2 2-2h8zM12 18c1.105 0 2 0.895 2 2v8c0 1.105-0.895 2-2 2h-8c-1.105 0-2-0.895-2-2v-8c0-1.105 0.895-2 2-2h8zM12 2c1.105 0 2 0.895 2 2v8c0 1.105-0.895 2-2 2h-8c-1.105 0-2-0.895-2-2v-8c0-1.105 0.895-2 2-2h8zM28 2c1.105 0 2 0.895 2 2v8c0 1.105-0.895 2-2 2h-8c-1.105 0-2-0.895-2-2v-8c0-1.105 0.895-2 2-2h8z"/></svg>