<svg xmlns="http://www.w3.org/2000/svg" xmlns:xlink="http://www.w3.org/1999/xlink" version="1.1" viewBox="0 0 32 32"><title>dragable_area</title><path d="M11 23c1.657 0 3 1.343 3 3s-1.343 3-3 3c-1.657 0-3-1.343-3-3s1.343-3 3-3zM21 23c1.657 0 3 1.343 3 3s-1.343 3-3 3c-1.657 0-3-1.343-3-3s1.343-3 3-3zM11 13c1.657 0 3 1.343 3 3s-1.343 3-3 3c-1.657 0-3-1.343-3-3s1.343-3 3-3zM21 13c1.657 0 3 1.343 3 3s-1.343 3-3 3c-1.657 0-3-1.343-3-3s1.343-3 3-3zM11 3c1.657 0 3 1.343 3 3s-1.343 3-3 3c-1.657 0-3-1.343-3-3s1.343-3 3-3zM21 3c1.657 0 3 1.343 3 3s-1.343 3-3 3c-1.657 0-3-1.343-3-3s1.343-3 3-3z"/></svg>