<svg xmlns="http://www.w3.org/2000/svg" xmlns:xlink="http://www.w3.org/1999/xlink" version="1.1" viewBox="0 0 32 32"><title>weak-connection</title><path fill="#000" d="M25 4h2c1.105 0 2 0.895 2 2v20c0 1.105-0.895 2-2 2h-2c-1.105 0-2-0.895-2-2v-20c0-1.105 0.895-2 2-2z" opacity=".32" style="fill:var(--color17, #000)"/><path fill="#000" d="M17 14c1.105 0 2 0.895 2 2v10c0 1.105-0.895 2-2 2h-2c-1.105 0-2-0.895-2-2v-10c0-1.105 0.895-2 2-2h2zM7 20c1.105 0 2 0.895 2 2v4c0 1.105-0.895 2-2 2h-2c-1.105 0-2-0.895-2-2v-4c0-1.105 0.895-2 2-2h2z" style="fill:var(--color17, #000)"/></svg>