<svg xmlns="http://www.w3.org/2000/svg" xmlns:xlink="http://www.w3.org/1999/xlink" version="1.1" viewBox="0 0 32 32"><title>Paging</title><path fill="#066fac" d="M32 16c0 8.837-7.163 16-16 16s-16-7.163-16-16c0-8.837 7.163-16 16-16s16 7.163 16 16z" style="fill:var(--color1, #066fac)"/><path fill="#fff" d="M22 11c1.105 0 2 0.895 2 2v7c0 1.105-0.895 2-2 2h-12c-1.105 0-2-0.895-2-2v-7c0-1.105 0.895-2 2-2h12zM12 19c-0.552 0-1 0.448-1 1s0.448 1 1 1c0.552 0 1-0.448 1-1s-0.448-1-1-1zM16 19c-0.552 0-1 0.448-1 1s0.448 1 1 1c0.552 0 1-0.448 1-1s-0.448-1-1-1zM20 19c-0.552 0-1 0.448-1 1s0.448 1 1 1c0.552 0 1-0.448 1-1s-0.448-1-1-1zM16.5 15h-5c-0.276 0-0.5 0.224-0.5 0.5s0.224 0.5 0.5 0.5v0h5c0.276 0 0.5-0.224 0.5-0.5s-0.224-0.5-0.5-0.5v0zM18.5 13h-7c-0.276 0-0.5 0.224-0.5 0.5s0.224 0.5 0.5 0.5v0h7c0.276 0 0.5-0.224 0.5-0.5s-0.224-0.5-0.5-0.5v0z" style="fill:var(--color2, #fff)"/></svg>